<svg width="234" height="228" viewBox="0 0 234 228" fill="none" xmlns="http://www.w3.org/2000/svg">
<path d="M158.74 165.869C166.087 165.869 170 158.748 170 153.33C170 147.913 169.261 108.55 151.611 72.5947C133.961 36.6393 101.139 48.7409 101.139 48.7409C101.139 48.7409 99.1831 31.2657 94.0534 31.5276C88.9236 31.7896 85.4893 41.6195 85.4893 41.6195L78.6208 41.3576C78.6208 41.3576 70.5347 30.7849 65.8834 31.0033C61.232 31.2218 60.971 38.1243 63.6662 51.4494C63.6662 51.4494 61.2316 57.3473 54.3631 62.5464C47.4945 67.7454 51.4068 76.5703 50.6678 80.5023C49.9287 84.4344 40.3645 98.9823 37.1913 103.133C34.0177 107.283 29.8444 116.894 36.7133 123.579C43.5818 130.219 50.4071 134.676 50.4071 134.676C50.4071 134.676 53.8414 139.612 61.1883 130.482C68.5353 121.351 71.4915 112.264 87.4025 103.177C98.9228 96.0556 101.618 96.798 101.618 96.798C101.618 96.798 104.053 102.477 102.357 111.084C100.662 119.69 82.2728 141.098 77.621 146.297C72.9693 151.496 67.5789 162.286 78.099 166H158.741L158.74 165.869Z" fill="#0069C7" stroke="url(#paint0_linear_266_1757)" stroke-width="5" stroke-linecap="round" stroke-linejoin="round"/>
<path d="M194.42 176.5L198.799 180.481L193.873 197.5H45.0723L39.2666 180.532L44.5098 176.5H194.42Z" fill="#0069C7" stroke="url(#paint1_linear_266_1757)" stroke-width="3"/>
<defs>
<linearGradient id="paint0_linear_266_1757" x1="101.5" y1="31" x2="101.5" y2="166" gradientUnits="userSpaceOnUse">
<stop stop-color="#1DFBFF"/>
<stop offset="1" stop-color="#0060B0"/>
</linearGradient>
<linearGradient id="paint1_linear_266_1757" x1="44" y1="187" x2="195" y2="187" gradientUnits="userSpaceOnUse">
<stop stop-color="#025AA9"/>
<stop offset="1" stop-color="#1763A1"/>
</linearGradient>
</defs>
</svg>
